<svg width="20" height="20" viewBox="0 0 20 20" fill="none" xmlns="http://www.w3.org/2000/svg">
<g clip-path="url(#clip0_6314_4129)">
<g clip-path="url(#clip1_6314_4129)">
<path d="M14.5793 4.62002C13.3393 4.42002 12.1193 4.68002 11.0793 5.36002C11.3793 4.68002 11.8793 4.06002 12.5393 3.52002C13.3193 2.86002 14.0593 2.56002 14.0593 2.56002C14.3593 2.44002 14.5193 2.10002 14.3993 1.80002C14.2793 1.48002 13.9393 1.34002 13.6393 1.46002C13.5393 1.50002 12.0593 2.08002 10.8993 3.44002C10.8593 3.24002 10.7793 3.02002 10.6993 2.80002C10.0193 1.00002 8.09928 0.100022 8.01928 0.0600222C7.87928 -0.0199778 7.71928 -0.0199778 7.55928 0.0400222C7.39928 0.100022 7.27928 0.220022 7.21928 0.360022C7.19928 0.440022 6.37928 2.38002 7.05928 4.20002C7.13928 4.36002 7.19928 4.52002 7.27928 4.66002C6.67928 4.54002 6.05928 4.52002 5.41928 4.62002C2.65928 5.06002 0.779276 7.72002 1.19928 10.54C1.51928 12.56 1.95928 14.3 2.53928 15.68C3.19928 17.28 4.01928 18.44 4.99928 19.16C5.77928 19.72 6.63928 20 7.57928 20C7.83928 20 8.09928 19.98 8.37928 19.94C8.99928 19.84 9.53928 19.6 9.99928 19.26C10.4593 19.6 10.9993 19.84 11.6393 19.94C12.8793 20.14 14.0193 19.88 14.9993 19.16C15.9793 18.44 16.7993 17.28 17.4593 15.68C18.0393 14.3 18.4993 12.56 18.7993 10.54C19.2393 7.72002 17.3393 5.06002 14.5793 4.62002ZM8.11928 1.50002C8.61928 1.84002 9.27928 2.42002 9.59928 3.22002C9.89928 4.04002 9.79928 4.92002 9.65928 5.50002C9.15928 5.16002 8.49928 4.58002 8.17928 3.76002C7.87928 2.96002 7.97928 2.08002 8.11928 1.50002ZM17.6193 10.36C17.0193 14.34 15.8593 17.04 14.2993 18.18C13.5593 18.72 12.7593 18.9 11.8193 18.76C11.2393 18.66 10.7993 18.44 10.4393 18.04C10.3193 17.92 10.1593 17.86 9.99928 17.86C9.83928 17.86 9.67928 17.92 9.55928 18.04C9.19928 18.44 8.75928 18.66 8.17928 18.76C7.23928 18.9 6.43928 18.72 5.69928 18.18C4.13928 17.04 2.97928 14.34 2.37928 10.36C2.03928 8.18002 3.49928 6.14002 5.61928 5.78002C5.81928 5.76002 6.01928 5.74002 6.21928 5.74002C7.03928 5.74002 7.83928 6.02002 8.51928 6.52002C9.39928 7.20002 10.6193 7.20002 11.4793 6.52002C12.3193 5.88002 13.3593 5.62002 14.3793 5.78002C16.4993 6.14002 17.9593 8.18002 17.6193 10.36Z" fill="black"/>
</g>
</g>
<defs>
<clipPath id="clip0_6314_4129">
<rect width="20" height="20" fill="white"/>
</clipPath>
<clipPath id="clip1_6314_4129">
<rect width="20" height="20" fill="white"/>
</clipPath>
</defs>
</svg>
