<svg width="20" height="20" viewBox="0 0 20 20" fill="none" xmlns="http://www.w3.org/2000/svg">
<g clip-path="url(#clip0_6314_4262)">
<g clip-path="url(#clip1_6314_4262)">
<path d="M8.56862 11.0898C8.56862 10.0252 7.70248 9.15906 6.63784 9.15906C5.57321 9.15906 4.70703 10.0252 4.70703 11.0898H5.8789C5.8789 10.6714 6.21938 10.3309 6.63784 10.3309C7.05631 10.3309 7.39675 10.6714 7.39675 11.0898H8.56862Z" fill="black"/>
<path d="M13.3605 9.15906C12.2958 9.15906 11.4297 10.0252 11.4297 11.0898H12.6016C12.6016 10.6714 12.942 10.3309 13.3605 10.3309C13.7789 10.3309 14.1194 10.6714 14.1194 11.0898H15.2913C15.2913 10.0252 14.4251 9.15906 13.3605 9.15906Z" fill="black"/>
<path d="M9.99807 14.5188C9.25719 14.5188 8.56252 14.1215 8.18504 13.4819L7.17578 14.0774C7.76298 15.0725 8.84442 15.6906 9.99803 15.6906C11.1516 15.6906 12.2331 15.0725 12.8203 14.0774L11.811 13.4818C11.4336 14.1214 10.7389 14.5188 9.99807 14.5188Z" fill="black"/>
<path d="M19.2375 9.01438C18.8643 8.64161 18.3957 8.39512 17.887 8.2986C16.7884 4.90378 13.6015 2.5664 10 2.5664H9.60715C8.66374 2.5664 7.89622 1.79884 7.89622 0.855469H6.72435C6.72435 1.49563 6.93435 2.0875 7.2887 2.5664H6.91743C5.97402 2.5664 5.2065 1.79884 5.2065 0.855469H4.03463C4.03463 2.12872 4.86464 3.21107 6.01173 3.59171C4.19752 4.58911 2.77553 6.25142 2.11307 8.2986C1.60437 8.39512 1.13559 8.64169 0.762064 9.01481C0.270636 9.50676 0 10.1604 0 10.8555C0 11.542 0.264825 12.1896 0.74574 12.6792C1.12159 13.0619 1.59626 13.3144 2.11307 13.4124C3.21158 16.8072 6.39842 19.1445 10 19.1445C13.6016 19.1445 16.7884 16.8072 17.8869 13.4124C18.4037 13.3144 18.8784 13.0619 19.2543 12.6792C19.7352 12.1896 20 11.542 20 10.8555C20 10.1604 19.7294 9.50676 19.2375 9.01438ZM17.4253 12.286L16.9855 12.2943L16.8707 12.7189C16.0342 15.8122 13.2089 17.9726 9.99996 17.9726C6.79107 17.9726 3.96578 15.8122 3.12929 12.7189L3.01446 12.2943L2.57473 12.286C1.80117 12.2714 1.17183 11.6297 1.17183 10.8555C1.17183 10.4732 1.32073 10.1136 1.59061 9.84344C1.85382 9.58051 2.20331 9.43185 2.57462 9.4249L3.01442 9.41664L3.12925 8.99201C3.96578 5.89873 6.79111 3.73831 10 3.73831C11.0591 3.73831 11.9207 4.59994 11.9207 5.65904C11.9207 6.71815 11.0591 7.57982 10 7.57982C8.9409 7.57982 8.07926 6.71819 8.07926 5.65908H6.90739C6.90739 7.36436 8.29472 8.75169 10 8.75169C11.7053 8.75169 13.0926 7.36436 13.0926 5.65908C13.0926 5.17378 12.98 4.71445 12.7799 4.30527C14.7453 5.14129 16.289 6.84095 16.8707 8.99205L16.9855 9.41668L17.4253 9.42494C17.7967 9.43189 18.1461 9.58055 18.4089 9.84301C18.6793 10.1137 18.8282 10.4732 18.8282 10.8555C18.8281 11.6297 18.1988 12.2714 17.4253 12.286Z" fill="black"/>
</g>
</g>
<defs>
<clipPath id="clip0_6314_4262">
<rect width="20" height="20" fill="white"/>
</clipPath>
<clipPath id="clip1_6314_4262">
<rect width="20" height="20" fill="white"/>
</clipPath>
</defs>
</svg>
