<svg width="20" height="20" viewBox="0 0 20 20" fill="none" xmlns="http://www.w3.org/2000/svg">
<g clip-path="url(#clip0_6314_4162)">
<path d="M16.4808 2.3C14.7408 0.82 12.4408 0 10.0008 0C7.56078 0 5.26078 0.82 3.52078 2.3C1.76078 3.82 0.800781 5.84 0.800781 7.98C0.800781 9.76 1.46078 10.92 2.56078 12.22C3.28078 13.08 3.64078 13.7 3.64078 14.8V17.92C3.64078 19.06 4.58078 20 5.72078 20H14.2808C15.4208 20 16.3608 19.06 16.3608 17.92V14.8C16.3608 13.7 16.7208 13.08 17.4408 12.22C18.5408 10.92 19.2008 9.76 19.2008 7.98C19.2008 5.84 18.2408 3.82 16.4808 2.3ZM16.5408 11.44C15.6608 12.48 15.1608 13.36 15.1608 14.8V17.92C15.1608 18.42 14.7608 18.82 14.2808 18.82H5.72078C5.24078 18.82 4.84078 18.42 4.84078 17.92V14.8C4.84078 13.36 4.34078 12.48 3.46078 11.44C2.50078 10.3 1.98078 9.42 1.98078 7.98C1.98078 4.24 5.58078 1.18 10.0008 1.18C14.4208 1.18 18.0208 4.24 18.0208 7.98C18.0208 9.42 17.5008 10.3 16.5408 11.44ZM6.94078 4.34C5.72078 4.34 4.72078 5.32 4.72078 6.54C4.72078 7.78 5.72078 8.76 6.94078 8.76C8.16078 8.76 9.16078 7.78 9.16078 6.54C9.16078 5.3 8.16078 4.34 6.94078 4.34ZM6.94078 7.58C6.38078 7.58 5.92078 7.12 5.92078 6.54C5.92078 5.98 6.38078 5.52 6.94078 5.52C7.50078 5.52 7.96078 5.98 7.96078 6.54C7.96078 7.12 7.50078 7.58 6.94078 7.58ZM13.4208 4.24C13.1008 4.24 12.8008 4.5 12.8208 4.84C12.8408 5.16 13.0808 5.42 13.4208 5.42C13.7208 5.42 14.0208 5.16 14.0008 4.84C14.0008 4.5 13.7408 4.24 13.4208 4.24ZM8.04078 10.46C7.72078 10.46 7.42078 10.74 7.44078 11.06C7.46078 11.38 7.70078 11.66 8.04078 11.66C8.36078 11.66 8.64078 11.38 8.64078 11.06C8.62078 10.74 8.38078 10.46 8.04078 10.46ZM10.0008 13.54C8.88078 13.54 7.96078 14.46 7.96078 15.58C7.96078 16.7 8.88078 17.62 10.0008 17.62C11.1208 17.62 12.0408 16.7 12.0408 15.58C12.0408 14.46 11.1208 13.54 10.0008 13.54ZM10.0008 16.44C9.52078 16.44 9.14078 16.06 9.14078 15.58C9.14078 15.1 9.52078 14.72 10.0008 14.72C10.4808 14.72 10.8608 15.1 10.8608 15.58C10.8608 16.06 10.4808 16.44 10.0008 16.44ZM13.1608 7.3C12.0608 7.3 11.1608 8.2 11.1608 9.3C11.1608 10.4 12.0608 11.3 13.1608 11.3C14.2608 11.3 15.1608 10.42 15.1608 9.3C15.1608 8.18 14.2608 7.3 13.1608 7.3ZM13.1608 10.12C12.7208 10.12 12.3408 9.76 12.3408 9.3C12.3408 8.86 12.7208 8.5 13.1608 8.5C13.6008 8.5 13.9608 8.86 13.9608 9.3C13.9608 9.76 13.6008 10.12 13.1608 10.12Z" fill="black"/>
</g>
<defs>
<clipPath id="clip0_6314_4162">
<rect width="20" height="20" fill="white"/>
</clipPath>
</defs>
</svg>
