<svg width="18" height="18" viewBox="0 0 18 18" fill="none" xmlns="http://www.w3.org/2000/svg">
<g clip-path="url(#clip0_6314_4119)">
<path d="M5.24244 1.72802H1.49844C1.11444 1.72802 0.793437 1.84802 0.535437 2.08802C0.277437 2.32802 0.148438 2.63402 0.148438 3.00602V6.75002C0.148438 7.12202 0.280437 7.44002 0.544437 7.70402C0.808437 7.96802 1.12644 8.10002 1.49844 8.10002H5.24244C5.62644 8.10002 5.94744 7.96802 6.20544 7.70402C6.46344 7.44002 6.59244 7.12202 6.59244 6.75002V3.00602C6.59244 2.63402 6.46344 2.32802 6.20544 2.08802C5.94744 1.84802 5.62644 1.72802 5.24244 1.72802ZM5.38644 6.75002C5.38644 6.78602 5.37144 6.81902 5.34144 6.84902C5.31144 6.87902 5.27844 6.89402 5.24244 6.89402H1.49844C1.46244 6.93002 1.42644 6.92702 1.39044 6.88502C1.35444 6.84302 1.33644 6.79802 1.33644 6.75002V3.00602C1.33644 2.95802 1.35444 2.91902 1.39044 2.88902C1.42644 2.85902 1.46244 2.84402 1.49844 2.84402H5.24244C5.27844 2.84402 5.31144 2.85902 5.34144 2.88902C5.37144 2.91902 5.38644 2.95802 5.38644 3.00602V6.75002ZM13.4864 1.72802H9.74244C9.37044 1.72802 9.05244 1.85702 8.78844 2.11502C8.52444 2.37302 8.39244 2.69402 8.39244 3.07802V6.82202C8.39244 7.19402 8.52444 7.51202 8.78844 7.77602C9.05244 8.04002 9.37044 8.17202 9.74244 8.17202H13.4864C13.8704 8.17202 14.1914 8.04002 14.4494 7.77602C14.7074 7.51202 14.8364 7.19402 14.8364 6.82202V3.00602C14.8364 2.63402 14.7074 2.32802 14.4494 2.08802C14.1914 1.84802 13.8704 1.72802 13.4864 1.72802ZM13.6484 6.75002C13.6484 6.78602 13.6334 6.81902 13.6034 6.84902C13.5734 6.87902 13.5344 6.89402 13.4864 6.89402H9.74244C9.70644 6.89402 9.67344 6.87902 9.64344 6.84902C9.61344 6.81902 9.59844 6.78602 9.59844 6.75002V3.00602C9.59844 2.95802 9.61344 2.91902 9.64344 2.88902C9.67344 2.85902 9.70644 2.84402 9.74244 2.84402H13.4864C13.5344 2.84402 13.5734 2.85902 13.6034 2.88902C13.6334 2.91902 13.6484 2.95802 13.6484 3.00602V6.75002ZM13.4864 9.97202H9.74244C9.37044 9.97202 9.05244 10.101 8.78844 10.359C8.52444 10.617 8.39244 10.938 8.39244 11.322V15.066C8.39244 15.45 8.52444 15.774 8.78844 16.038C9.05244 16.302 9.37044 16.434 9.74244 16.434H13.4864C13.8584 16.434 14.1764 16.302 14.4404 16.038C14.7044 15.774 14.8364 15.45 14.8364 15.066V11.322C14.8364 10.914 14.7074 10.587 14.4494 10.341C14.1914 10.095 13.8704 9.97202 13.4864 9.97202ZM13.6484 14.994C13.6484 15.03 13.6334 15.066 13.6034 15.102C13.5734 15.138 13.5344 15.156 13.4864 15.156H9.74244C9.70644 15.156 9.67344 15.138 9.64344 15.102C9.61344 15.066 9.59844 15.03 9.59844 14.994V11.25C9.59844 11.214 9.61344 11.181 9.64344 11.151C9.67344 11.121 9.70644 11.106 9.74244 11.106H13.4864C13.5344 11.106 13.5734 11.121 13.6034 11.151C13.6334 11.181 13.6484 11.214 13.6484 11.25V14.994ZM5.24244 9.97202H1.49844C1.12644 9.97202 0.808437 10.101 0.544437 10.359C0.280437 10.617 0.148438 10.938 0.148438 11.322V15.066C0.148438 15.45 0.280437 15.774 0.544437 16.038C0.808437 16.302 1.12644 16.434 1.49844 16.434H5.24244C5.61444 16.434 5.93244 16.302 6.19644 16.038C6.46044 15.774 6.59244 15.45 6.59244 15.066V11.322C6.59244 10.914 6.46344 10.587 6.20544 10.341C5.94744 10.095 5.62644 9.97202 5.24244 9.97202ZM5.38644 14.994C5.38644 15.03 5.37144 15.066 5.34144 15.102C5.31144 15.138 5.27844 15.156 5.24244 15.156H1.49844C1.46244 15.156 1.42644 15.138 1.39044 15.102C1.35444 15.066 1.33644 15.03 1.33644 14.994V11.25C1.33644 11.214 1.35444 11.181 1.39044 11.151C1.42644 11.121 1.46244 11.106 1.49844 11.106H5.24244C5.27844 11.106 5.31144 11.121 5.34144 11.151C5.37144 11.181 5.38644 11.214 5.38644 11.25V14.994Z" fill="#030712"/>
</g>
<defs>
<clipPath id="clip0_6314_4119">
<rect width="18" height="18" fill="white" transform="matrix(1 0 0 -1 0 18)"/>
</clipPath>
</defs>
</svg>
