<svg width="20" height="20" viewBox="0 0 20 20" fill="none" xmlns="http://www.w3.org/2000/svg">
<g clip-path="url(#clip0_6314_4170)">
<g clip-path="url(#clip1_6314_4170)">
<g clip-path="url(#clip2_6314_4170)">
<path d="M15.1073 7.09833H1.43816C1.04082 7.09833 0.71875 7.4204 0.71875 7.81774V12.446C0.71875 16.6115 4.1075 20 8.27273 20C12.438 20 15.8267 16.6115 15.8267 12.4461V7.81774C15.8267 7.4204 15.5046 7.09833 15.1073 7.09833ZM14.3878 12.4461C14.3878 15.818 11.6446 18.5612 8.2727 18.5612C4.90074 18.5612 2.15762 15.818 2.15762 12.4461V8.5372H14.3879L14.3878 12.4461Z" fill="black"/>
<path d="M17.0512 10.048H15.1085V11.4868H17.0512C17.7793 11.4868 18.3941 12.1017 18.3941 12.8298C18.3941 13.5578 17.779 14.1727 17.0512 14.1727H14.6289V15.6116H17.0512C18.585 15.6116 19.833 14.3638 19.833 12.8298C19.833 11.2957 18.585 10.048 17.0512 10.048Z" fill="black"/>
<path d="M8.2741 0C7.87676 0 7.55469 0.32207 7.55469 0.719414V4.14867C7.55469 4.54602 7.87676 4.86809 8.2741 4.86809C8.67145 4.86809 8.99352 4.54602 8.99352 4.14867V0.719414C8.99352 0.32207 8.67145 0 8.2741 0Z" fill="black"/>
<path d="M11.7038 1.15112C11.3064 1.15112 10.9844 1.47319 10.9844 1.87054V5.29979C10.9844 5.69714 11.3064 6.01921 11.7038 6.01921C12.1011 6.01921 12.4232 5.69714 12.4232 5.29979V1.87054C12.4232 1.47315 12.1012 1.15112 11.7038 1.15112Z" fill="black"/>
<path d="M4.84441 1.15112C4.44707 1.15112 4.125 1.47319 4.125 1.87054V5.29979C4.125 5.69714 4.44707 6.01921 4.84441 6.01921C5.24176 6.01921 5.56383 5.69714 5.56383 5.29979V1.87054C5.56383 1.47315 5.24176 1.15112 4.84441 1.15112Z" fill="black"/>
<path d="M15.4677 18.5612H0.887383C0.490039 18.5612 0.167969 18.8832 0.167969 19.2806C0.167969 19.6779 0.490039 20 0.887383 20H15.4677C15.8651 20 16.1871 19.6779 16.1871 19.2806C16.1871 18.8832 15.8651 18.5612 15.4677 18.5612Z" fill="black"/>
</g>
</g>
</g>
<defs>
<clipPath id="clip0_6314_4170">
<rect width="20" height="20" fill="white"/>
</clipPath>
<clipPath id="clip1_6314_4170">
<rect width="20" height="20" fill="white"/>
</clipPath>
<clipPath id="clip2_6314_4170">
<rect width="20" height="20" fill="white"/>
</clipPath>
</defs>
</svg>
