<svg width="18" height="20" viewBox="0 0 18 20" fill="none" xmlns="http://www.w3.org/2000/svg">
<path d="M9.22032 3.03675C10.1531 3.3509 10.9255 4.28428 11.303 4.81264C11.9149 5.66938 12.4104 6.71153 12.7358 7.82645C12.81 8.0804 13.042 8.2452 13.2939 8.2452C13.3478 8.2452 13.4027 8.23761 13.4571 8.22175C13.7654 8.13172 13.9424 7.80882 13.8524 7.50049C13.4908 6.26162 12.9365 5.0984 12.2495 4.13655C11.6888 3.35146 10.7725 2.33211 9.5916 1.9344C9.28723 1.83185 8.9573 1.99553 8.85481 2.29991C8.75226 2.60434 8.91594 2.93421 9.22032 3.03675Z" fill="black"/>
<path d="M17.0357 8.71758C16.9896 8.41707 16.7195 8.20318 16.4166 8.22621C16.2837 8.23636 16.1641 8.2907 16.0716 8.37412L15.901 8.52147C15.5593 6.55981 14.7777 4.63402 13.6885 3.10897C12.2566 1.10413 10.4507 0 8.60345 0C6.75639 0 4.95059 1.10413 3.51863 3.10906C2.42935 4.63421 1.64789 6.55995 1.30633 8.52152L1.1426 8.37998C1.04927 8.29312 0.927 8.2364 0.790816 8.22598C0.48774 8.20318 0.217885 8.41707 0.171684 8.71758C0.0577398 9.45922 0 10.1966 0 10.9092C0 13.6866 0.872191 16.0175 2.52226 17.6501C4.05388 19.1655 6.21374 20 8.60392 20C10.9939 20 13.1536 19.1655 14.6852 17.6501C16.3352 16.0175 17.2074 13.6866 17.2074 10.9092C17.2075 10.1966 17.1497 9.45922 17.0357 8.71758ZM4.46522 3.78509C5.67278 2.09431 7.14247 1.16317 8.60345 1.16317C10.0646 1.16317 11.5344 2.09431 12.742 3.78505C13.8625 5.35379 14.6249 7.39408 14.8563 9.42451L13.9237 10.2305L11.6434 8.2599C11.425 8.07119 11.1012 8.07119 10.8828 8.25999L8.60345 10.2304L6.32369 8.25995C6.10534 8.07114 5.78146 8.07114 5.56307 8.25995L3.28326 10.2304L2.35114 9.4247C2.58228 7.39431 3.34472 5.35393 4.46522 3.78509ZM13.8672 16.8232C12.5548 18.1217 10.6856 18.8368 8.60396 18.8368C6.52208 18.8368 4.65282 18.1217 3.34039 16.8232C1.91607 15.4141 1.16317 13.3691 1.16317 10.9092C1.16317 10.5996 1.17508 10.2846 1.19886 9.96608L2.9029 11.4391C3.12125 11.6279 3.44508 11.6279 3.66352 11.4391L5.94333 9.46857L8.22314 11.4391C8.44154 11.6279 8.76537 11.6279 8.98381 11.4391L11.2632 9.46857L13.5434 11.4392C13.7618 11.6279 14.0856 11.6279 14.304 11.4392L16.0086 9.96594C16.0323 10.2845 16.0442 10.5995 16.0442 10.9091C16.0443 13.369 15.2914 15.414 13.8672 16.8232Z" fill="black"/>
</svg>
