<svg width="20" height="20" viewBox="0 0 20 20" fill="none" xmlns="http://www.w3.org/2000/svg">
<g clip-path="url(#clip0_6314_4212)">
<g clip-path="url(#clip1_6314_4212)">
<g clip-path="url(#clip2_6314_4212)">
<path d="M18.4124 14.0677L16.3811 12.8949L18.1415 11.8569C18.4661 11.6654 18.5742 11.247 18.3827 10.9223C18.1912 10.5977 17.7729 10.4897 17.4481 10.6811L15.0232 12.111L11.3669 9.99995L15.0225 7.88931L17.4482 9.319C17.557 9.38316 17.6764 9.41355 17.7941 9.41355C18.0278 9.41355 18.2554 9.29343 18.3827 9.07749C18.5741 8.7528 18.466 8.33439 18.1413 8.14292L16.3806 7.10526L18.4124 5.93218C18.7389 5.74372 18.8507 5.3263 18.6622 4.99989C18.4738 4.67338 18.0564 4.56154 17.73 4.75009L15.6986 5.92299L15.6801 3.87904C15.6767 3.50212 15.3675 3.19755 14.9915 3.20273C14.6146 3.2061 14.3117 3.51441 14.3152 3.89133L14.3406 6.70695L10.6845 8.81787V4.59639L13.1357 3.21101C13.4639 3.02556 13.5795 2.60923 13.3941 2.281C13.2086 1.95285 12.7922 1.8371 12.4641 2.02265L10.6845 3.02847V0.682498C10.6845 0.305577 10.3789 0 10.002 0C9.62507 0 9.31949 0.305577 9.31949 0.682498V3.02847L7.5399 2.02274C7.21157 1.83719 6.79543 1.95285 6.60988 2.28109C6.42443 2.60923 6.54009 3.02565 6.86823 3.21111L9.3194 4.59648V8.81787L5.66331 6.70695L5.68869 3.89133C5.69215 3.51441 5.38931 3.2061 5.01238 3.20273C5.01029 3.20273 5.00829 3.20273 5.00611 3.20273C4.6321 3.20273 4.32716 3.50422 4.32379 3.87913L4.30532 5.92299L2.27393 4.75009C1.94752 4.56154 1.5301 4.67347 1.34164 4.99989C1.15318 5.3263 1.26502 5.74372 1.59143 5.93218L3.62318 7.10526L1.86225 8.14311C1.53756 8.33448 1.42945 8.75289 1.62083 9.07767C1.74814 9.29361 1.97573 9.41373 2.2095 9.41373C2.32726 9.41373 2.44656 9.38325 2.55539 9.31919L4.98135 7.88949L8.63708 10.0001L4.98072 12.1111L2.55539 10.681C2.23089 10.4896 1.81229 10.5975 1.62083 10.9222C1.42936 11.2469 1.53738 11.6653 1.86207 11.8567L3.62273 12.8948L1.59134 14.0676C1.26493 14.2561 1.15309 14.6735 1.34155 14.9999C1.46795 15.2189 1.69736 15.3413 1.93323 15.3413C2.04898 15.3413 2.16637 15.3118 2.27384 15.2497L4.30523 14.0768L4.3237 16.1209C4.32707 16.4957 4.63201 16.7973 5.00602 16.7973C5.00811 16.7973 5.0102 16.7973 5.01229 16.7972C5.38921 16.7938 5.69206 16.4855 5.6886 16.1086L5.66321 13.2929L9.3194 11.1819V15.4035L6.86823 16.7889C6.54009 16.9744 6.42443 17.3907 6.60988 17.7189C6.73537 17.941 6.9666 18.0657 7.20466 18.0657C7.31841 18.0657 7.43379 18.0372 7.5399 17.9773L9.31949 16.9715V19.3175C9.31949 19.6944 9.62507 20 10.002 20C10.3789 20 10.6845 19.6944 10.6845 19.3175V16.9715L12.4641 17.9773C12.5702 18.0372 12.6855 18.0657 12.7993 18.0657C13.0374 18.0657 13.2686 17.941 13.3941 17.7189C13.5795 17.3908 13.4639 16.9744 13.1357 16.7889L10.6845 15.4035V11.182L14.3406 13.2929L14.3146 16.1085C14.311 16.4854 14.6138 16.7938 14.9907 16.7973C14.9929 16.7974 14.995 16.7974 14.9971 16.7974C15.3711 16.7974 15.676 16.4959 15.6795 16.1211L15.6984 14.0768L17.73 15.2498C17.8375 15.3119 17.9549 15.3414 18.0707 15.3414C18.3065 15.3414 18.5359 15.2189 18.6623 15C18.8508 14.6736 18.739 14.2562 18.4124 14.0677Z" fill="black"/>
</g>
</g>
</g>
<defs>
<clipPath id="clip0_6314_4212">
<rect width="20" height="20" fill="white"/>
</clipPath>
<clipPath id="clip1_6314_4212">
<rect width="20" height="20" fill="white"/>
</clipPath>
<clipPath id="clip2_6314_4212">
<rect width="20" height="20" fill="white"/>
</clipPath>
</defs>
</svg>
