<svg width="16" height="16" viewBox="0 0 16 16" fill="none" xmlns="http://www.w3.org/2000/svg">
<path d="M8.16816 4.39981C7.51749 4.39981 6.91749 4.56248 6.36816 4.88781C5.81882 5.21315 5.38149 5.65048 5.05616 6.19981C4.73082 6.74915 4.56816 7.34915 4.56816 7.99981C4.56816 8.65048 4.73082 9.25048 5.05616 9.79981C5.38149 10.3491 5.81882 10.7838 6.36816 11.1038C6.91749 11.4238 7.51749 11.5838 8.16816 11.5838C8.81882 11.5838 9.41882 11.4238 9.96816 11.1038C10.5175 10.7838 10.9522 10.3491 11.2722 9.79981C11.5922 9.25048 11.7522 8.65048 11.7522 7.99981C11.7522 7.34915 11.5922 6.74915 11.2722 6.19981C10.9522 5.65048 10.5175 5.21315 9.96816 4.88781C9.41882 4.56248 8.81882 4.39981 8.16816 4.39981ZM8.16816 10.3358C7.74149 10.3358 7.34949 10.2318 6.99216 10.0238C6.63482 9.81581 6.35216 9.53048 6.14416 9.16781C5.93616 8.80515 5.83216 8.41581 5.83216 7.99981C5.83216 7.58381 5.93616 7.19448 6.14416 6.83181C6.35216 6.46915 6.63482 6.18381 6.99216 5.97581C7.34949 5.76781 7.74149 5.66381 8.16816 5.66381C8.59482 5.66381 8.98682 5.76781 9.34416 5.97581C9.70149 6.18381 9.98416 6.46648 10.1922 6.82381C10.4002 7.18115 10.5042 7.57315 10.5042 7.99981C10.5042 8.42648 10.4002 8.81848 10.1922 9.17581C9.98416 9.53315 9.69882 9.81581 9.33616 10.0238C8.97349 10.2318 8.58416 10.3358 8.16816 10.3358ZM12.7442 4.25581C12.7442 4.49048 12.6615 4.69048 12.4962 4.85581C12.3308 5.02115 12.1308 5.10381 11.8962 5.10381C11.6615 5.10381 11.4642 5.02115 11.3042 4.85581C11.1442 4.69048 11.0642 4.49048 11.0642 4.25581C11.0642 4.02114 11.1442 3.82381 11.3042 3.66381C11.4642 3.50381 11.6615 3.42381 11.8962 3.42381C12.1308 3.42381 12.3308 3.50381 12.4962 3.66381C12.6615 3.82381 12.7442 4.02114 12.7442 4.25581ZM15.1122 5.10381C15.0908 4.49581 15.0002 3.96781 14.8402 3.51981C14.6588 3.00781 14.3735 2.55981 13.9842 2.17581C13.5948 1.79181 13.1442 1.50914 12.6322 1.32781C12.1842 1.16781 11.6562 1.07181 11.0482 1.03981C10.4722 1.00781 9.50949 0.991812 8.16016 0.991812C6.81082 0.991812 5.84816 1.00781 5.27216 1.03981C4.65349 1.07181 4.12549 1.16781 3.68816 1.32781C3.17616 1.50914 2.72816 1.79181 2.34416 2.17581C1.96016 2.55981 1.67749 3.00781 1.49616 3.51981C1.32549 3.96781 1.22949 4.49581 1.20816 5.10381C1.17616 5.67981 1.16016 6.64248 1.16016 7.99181C1.16016 9.34115 1.17616 10.3038 1.20816 10.8798C1.22949 11.4878 1.32016 12.0158 1.48016 12.4638C1.66149 12.9758 1.94949 13.4291 2.34416 13.8238C2.73882 14.2185 3.19216 14.5011 3.70416 14.6718C4.13082 14.8318 4.65349 14.9225 5.27216 14.9438C5.84816 14.9865 6.81082 15.0078 8.16016 15.0078C9.50949 15.0078 10.4722 14.9865 11.0482 14.9438C11.6562 14.9225 12.1842 14.8318 12.6322 14.6718C13.1442 14.4905 13.5948 14.2051 13.9842 13.8158C14.3735 13.4265 14.6588 12.9758 14.8402 12.4638C15.0002 12.0158 15.0908 11.4878 15.1122 10.8798C15.1442 10.3038 15.1602 9.34381 15.1602 7.99981C15.1602 6.65581 15.1442 5.69048 15.1122 5.10381ZM13.6242 12.1278C13.5068 12.4265 13.3335 12.6931 13.1042 12.9278C12.8748 13.1625 12.6055 13.3385 12.2962 13.4558C11.9442 13.5945 11.3735 13.6851 10.5842 13.7278C10.1362 13.7491 9.49082 13.7545 8.64816 13.7438H7.68816C6.84549 13.7545 6.20016 13.7491 5.75216 13.7278C4.95216 13.6851 4.38149 13.5945 4.04016 13.4558C3.73082 13.3385 3.46149 13.1651 3.23216 12.9358C3.00282 12.7065 2.82949 12.4371 2.71216 12.1278C2.57349 11.7758 2.48282 11.2051 2.44016 10.4158C2.41882 9.96781 2.41349 9.32248 2.42416 8.47981V7.51981C2.41349 6.67715 2.41882 6.03181 2.44016 5.58381C2.48282 4.78381 2.57349 4.21315 2.71216 3.87181C2.82949 3.56248 3.00282 3.29315 3.23216 3.06381C3.46149 2.83448 3.73082 2.66115 4.04016 2.54381C4.38149 2.40515 4.94682 2.31448 5.73616 2.27181C6.18416 2.25048 6.83482 2.24514 7.68816 2.25581H8.64816C9.49082 2.24514 10.1362 2.25048 10.5842 2.27181C11.3735 2.31448 11.9442 2.40515 12.2962 2.54381C12.6055 2.66115 12.8748 2.83448 13.1042 3.06381C13.3335 3.29315 13.5068 3.56248 13.6242 3.87181C13.7628 4.21315 13.8535 4.77848 13.8962 5.56781C13.9175 6.01581 13.9228 6.66648 13.9122 7.51981V8.47981C13.9228 9.32248 13.9175 9.96781 13.8962 10.4158C13.8535 11.2051 13.7628 11.7758 13.6242 12.1278Z" fill="#FD1D1D"/>
</svg>
