<svg width="15" height="15" viewBox="0 0 15 15" fill="none" xmlns="http://www.w3.org/2000/svg">
<g clip-path="url(#clip0_6481_3516)">
<path d="M4.03766 13.125H1.32266V4.365H4.03766V13.125ZM2.67266 3.165C2.39266 3.165 2.13016 3.0925 1.88516 2.9475C1.64016 2.8025 1.44766 2.61 1.30766 2.37C1.16766 2.13 1.09766 1.865 1.09766 1.575C1.09766 1.285 1.16766 1.02 1.30766 0.780001C1.44766 0.54 1.63766 0.35 1.87766 0.21C2.11766 0.0700006 2.38266 0 2.67266 0C2.96266 0 3.22766 0.0700006 3.46766 0.21C3.70766 0.35 3.89766 0.54 4.03766 0.780001C4.17766 1.02 4.24766 1.285 4.24766 1.575C4.24766 1.865 4.17766 2.13 4.03766 2.37C3.89766 2.61 3.70516 2.8025 3.46016 2.9475C3.21516 3.0925 2.95266 3.165 2.67266 3.165ZM14.2227 13.125H11.5077V8.865C11.5077 8.405 11.4877 8.055 11.4477 7.815C11.3877 7.425 11.2627 7.125 11.0727 6.915C10.8527 6.665 10.5277 6.54 10.0977 6.54C9.44766 6.54 8.99766 6.77 8.74766 7.23C8.55766 7.58 8.46266 8.1 8.46266 8.79V13.125H5.74766V4.365H8.35766V5.55H8.38766C8.58766 5.17 8.89766 4.85 9.31766 4.59C9.79766 4.29 10.3477 4.14 10.9677 4.14C11.8377 4.14 12.5277 4.325 13.0377 4.695C13.4877 5.025 13.8027 5.52 13.9827 6.18C14.1427 6.73 14.2227 7.44 14.2227 8.31V13.125Z" fill="#0077B5"/>
</g>
<defs>
<clipPath id="clip0_6481_3516">
<rect width="15" height="15" fill="white" transform="matrix(1 0 0 -1 0 15)"/>
</clipPath>
</defs>
</svg>
