<svg width="24" height="15" viewBox="0 0 24 15" fill="none" xmlns="http://www.w3.org/2000/svg">
<mask id="mask0_6481_3528" style="mask-type:luminance" maskUnits="userSpaceOnUse" x="0" y="0" width="24" height="15">
<path d="M24 0H0V14.8H24V0Z" fill="white"/>
</mask>
<g mask="url(#mask0_6481_3528)">
<path d="M7.4 14.8C11.4869 14.8 14.8 11.4869 14.8 7.40001C14.8 3.3131 11.4869 0 7.4 0C3.31309 0 0 3.3131 0 7.40001C0 11.4869 3.31309 14.8 7.4 14.8Z" fill="#DD3D31"/>
<path d="M16.5992 14.8C20.6861 14.8 23.9992 11.4869 23.9992 7.40001C23.9992 3.3131 20.6861 0 16.5992 0C12.5123 0 9.19922 3.3131 9.19922 7.40001C9.19922 11.4869 12.5123 14.8 16.5992 14.8Z" fill="#EEB046"/>
<path fill-rule="evenodd" clip-rule="evenodd" d="M11.999 13.3001C15.199 10.8001 15.799 6.1001 13.299 2.9001C12.899 2.4001 12.499 2.0001 11.999 1.6001C8.79892 4.1001 8.19892 8.8001 10.699 12.0001C11.099 12.5001 11.499 12.9001 11.999 13.3001Z" fill="#EF7D2F"/>
</g>
</svg>
