<svg width="20" height="20" viewBox="0 0 20 20" fill="none" xmlns="http://www.w3.org/2000/svg">
<g clip-path="url(#clip0_6314_4138)">
<g clip-path="url(#clip1_6314_4138)">
<g clip-path="url(#clip2_6314_4138)">
<path d="M8.99942 19.96C7.05942 19.96 5.23942 19.2 3.85942 17.82C3.13942 17.1 2.51942 16.24 2.11942 15.3C1.65942 14.28 1.39942 13.2 1.39942 12.08C1.35942 9.54 2.53942 6.98 4.81942 4.72C5.71942 3.8 7.91942 1.98 10.3994 0.88C13.4794 -0.46 15.9994 -0.26 17.7194 1.44C18.1394 1.86 18.4394 2.54 18.5394 3.26C18.6194 3.88 18.5994 4.82 17.9794 5.8C16.5394 8.12 15.9994 9.98 16.2194 11.8C16.4994 14.04 15.7394 16.24 14.1394 17.84C12.7594 19.2 10.9394 19.96 8.99942 19.96ZM14.0994 1.16C13.1594 1.16 12.0794 1.42 10.8794 1.96C8.55942 2.98 6.49942 4.7 5.63942 5.54C1.35942 9.84 2.07942 14.38 4.67942 17C7.05942 19.38 10.9194 19.38 13.3194 17C14.6394 15.68 15.2794 13.82 15.0594 11.94C14.7994 9.84 15.3994 7.76 16.9794 5.2C17.7794 3.88 17.2594 2.64 16.8794 2.28C16.1394 1.54 15.2194 1.16 14.0994 1.16ZM8.99942 17.62C7.67942 17.62 6.43942 17.1 5.51942 16.16C4.39942 15.06 3.75942 13.56 3.73942 12.06C3.71942 11.18 3.91942 10.28 4.29942 9.4C4.75942 8.38 5.47942 7.36 6.45942 6.38C8.13942 4.7 11.6194 2.34 14.0994 2.34C14.6394 2.34 15.0794 2.44 15.4794 2.66C15.7994 2.84 16.0394 3.14 16.1394 3.5C16.2394 3.86 16.1794 4.24 15.9994 4.56L15.9794 4.58C14.2794 7.34 13.6194 9.72 13.8994 12.08C14.0794 13.6 13.5594 15.1 12.4794 16.18C11.5394 17.1 10.3194 17.62 8.99942 17.62ZM14.0994 3.52C12.0794 3.52 8.83942 5.66 7.29942 7.2C6.41942 8.08 5.77942 8.98 5.37942 9.88C5.05942 10.6 4.89942 11.34 4.89942 12.04C4.91942 13.24 5.43942 14.44 6.33942 15.34C7.05942 16.06 7.99942 16.44 8.99942 16.44C9.99942 16.44 10.9394 16.06 11.6594 15.34C12.4794 14.52 12.8794 13.38 12.7394 12.22C12.4194 9.6 13.1394 6.96 14.9794 3.96C15.0194 3.9 15.0194 3.84 14.9994 3.8C14.9994 3.78 14.9794 3.72 14.9194 3.68C14.6994 3.56 14.4394 3.52 14.0994 3.52ZM9.03942 14.66C7.99942 14.66 7.15942 13.82 7.15942 12.78C7.15942 11.74 7.99942 10.9 9.03942 10.9C10.0794 10.9 10.9194 11.74 10.9194 12.78C10.9194 13.82 10.0794 14.66 9.03942 14.66ZM9.03942 12.08C8.65942 12.08 8.33942 12.38 8.33942 12.78C8.33942 13.18 8.65942 13.48 9.03942 13.48C9.41942 13.48 9.75942 13.16 9.75942 12.78C9.75942 12.4 9.43942 12.08 9.03942 12.08Z" fill="black"/>
</g>
</g>
</g>
<defs>
<clipPath id="clip0_6314_4138">
<rect width="20" height="20" fill="white"/>
</clipPath>
<clipPath id="clip1_6314_4138">
<rect width="20" height="20" fill="white"/>
</clipPath>
<clipPath id="clip2_6314_4138">
<rect width="20" height="20" fill="white"/>
</clipPath>
</defs>
</svg>
