<svg width="53" height="15" viewBox="0 0 53 15" fill="none" xmlns="http://www.w3.org/2000/svg">
<mask id="mask0_6481_3535" style="mask-type:luminance" maskUnits="userSpaceOnUse" x="0" y="0" width="53" height="15">
<path d="M52.5 0.600098H0V14.6001H52.5V0.600098Z" fill="white"/>
</mask>
<g mask="url(#mask0_6481_3535)">
<path d="M6.639 0.712402H2.614C2.339 0.712402 2.1015 0.912393 2.064 1.18739L0.438998 11.4873C0.401498 11.6873 0.563998 11.8748 0.776498 11.8748H2.7015C2.9765 11.8748 3.214 11.6749 3.2515 11.3999L3.689 8.62489C3.7265 8.34989 3.964 8.1499 4.239 8.1499H5.5015C8.1515 8.1499 9.6765 6.87491 10.0765 4.32491C10.2515 3.21241 10.089 2.3374 9.564 1.7249C8.989 1.0749 7.9765 0.712402 6.639 0.712402ZM7.1015 4.4874C6.8765 5.9249 5.7765 5.9249 4.714 5.9249H4.1015L4.5265 3.2374C4.5515 3.0749 4.689 2.94991 4.8515 2.94991H5.1265C5.8515 2.94991 6.539 2.9499 6.889 3.3624C7.114 3.6124 7.1765 3.9749 7.1015 4.4874Z" fill="#283B82"/>
<path d="M18.6523 4.4375H16.7273C16.5648 4.4375 16.4273 4.56251 16.4023 4.72501L16.3148 5.26252L16.1773 5.0625C15.7648 4.4625 14.8273 4.25 13.9023 4.25C11.7773 4.25 9.96476 5.8625 9.60226 8.125C9.41476 9.25 9.67726 10.3251 10.3148 11.0876C10.9023 11.7751 11.7398 12.0625 12.7398 12.0625C14.4523 12.0625 15.4023 10.9626 15.4023 10.9626L15.3148 11.5C15.2773 11.7 15.4398 11.8876 15.6398 11.8876H17.3773C17.6523 11.8876 17.8898 11.6876 17.9273 11.4126L18.9648 4.82502C19.0148 4.62502 18.8523 4.4375 18.6523 4.4375ZM15.9648 8.1875C15.7773 9.2875 14.9023 10.0251 13.7898 10.0251C13.2273 10.0251 12.7898 9.85 12.5023 9.5C12.2148 9.1625 12.1148 8.68751 12.2023 8.15001C12.3773 7.06251 13.2648 6.30001 14.3648 6.30001C14.9148 6.30001 15.3523 6.48752 15.6523 6.82502C15.9273 7.16252 16.0523 7.65 15.9648 8.1875Z" fill="#283B82"/>
<path d="M28.9013 4.4375H26.9638C26.7763 4.4375 26.6013 4.525 26.5013 4.6875L23.8388 8.61251L22.7138 4.83751C22.6388 4.60001 22.4263 4.4375 22.1763 4.4375H20.2763C20.0513 4.4375 19.8888 4.6625 19.9638 4.875L22.0888 11.125L20.0888 13.95C19.9263 14.175 20.0888 14.475 20.3638 14.475H22.3013C22.4888 14.475 22.6513 14.3875 22.7638 14.2375L29.2013 4.95002C29.3263 4.73752 29.1638 4.4375 28.9013 4.4375Z" fill="#283B82"/>
<path d="M35.3031 0.712402H31.2781C31.0031 0.712402 30.7656 0.912393 30.7281 1.18739L29.1031 11.4873C29.0656 11.6873 29.2281 11.8748 29.4281 11.8748H31.5031C31.6906 11.8748 31.8531 11.7373 31.8906 11.5498L32.3531 8.62489C32.3906 8.34989 32.6281 8.1499 32.9031 8.1499H34.1781C36.8281 8.1499 38.3531 6.87491 38.7531 4.32491C38.9281 3.21241 38.7656 2.3374 38.2406 1.7249C37.6656 1.0749 36.6531 0.712402 35.3031 0.712402ZM35.7656 4.4874C35.5406 5.9249 34.4406 5.9249 33.3781 5.9249H32.7781L33.2031 3.2374C33.2281 3.0749 33.3656 2.94991 33.5281 2.94991H33.8031C34.5281 2.94991 35.2156 2.9499 35.5656 3.3624C35.7781 3.6124 35.8406 3.9749 35.7656 4.4874Z" fill="#469BDB"/>
<path d="M47.3124 4.4375H45.3874C45.2249 4.4375 45.0874 4.56251 45.0624 4.72501L44.9749 5.26252L44.8374 5.0625C44.4249 4.4625 43.4874 4.25 42.5624 4.25C40.4374 4.25 38.6249 5.8625 38.2624 8.125C38.0749 9.25 38.3374 10.3251 38.9749 11.0876C39.5624 11.7751 40.3999 12.0625 41.3999 12.0625C43.1124 12.0625 44.0624 10.9626 44.0624 10.9626L43.9749 11.5C43.9374 11.7 44.0999 11.8876 44.3124 11.8876H46.0499C46.3249 11.8876 46.5624 11.6876 46.5999 11.4126L47.6374 4.82502C47.6749 4.62502 47.5124 4.4375 47.3124 4.4375ZM44.6249 8.1875C44.4374 9.2875 43.5624 10.0251 42.4499 10.0251C41.8874 10.0251 41.4499 9.85 41.1624 9.5C40.8749 9.1625 40.7749 8.68751 40.8624 8.15001C41.0374 7.06251 41.9249 6.30001 43.0249 6.30001C43.5749 6.30001 44.0124 6.48752 44.3124 6.82502C44.5999 7.16252 44.7124 7.65 44.6249 8.1875Z" fill="#469BDB"/>
<path d="M49.5773 0.999974L47.9273 11.5C47.8898 11.7 48.0523 11.8875 48.2523 11.8875H49.9148C50.1898 11.8875 50.4273 11.6875 50.4648 11.4125L52.0898 1.11248C52.1273 0.91248 51.9648 0.724983 51.7648 0.724983H49.9023C49.7523 0.712483 49.6148 0.837477 49.5773 0.999974Z" fill="#469BDB"/>
</g>
</svg>
