<svg width="28" height="28" viewBox="0 0 28 28" fill="none" xmlns="http://www.w3.org/2000/svg">
<path d="M22.3434 16.4358C21.13 16.3051 20.122 16.0345 19.3194 15.6238C18.7407 15.3998 18.148 15.3578 17.5414 15.4978C16.9347 15.6378 16.398 15.9131 15.9314 16.3238L14.8674 17.4998C12.5154 15.9691 10.574 14.0278 9.04338 11.6758L10.1074 10.6118C10.5554 10.1638 10.84 9.63646 10.9614 9.02979C11.0827 8.42313 11.0314 7.82113 10.8074 7.22379C10.4714 6.34646 10.238 5.33846 10.1074 4.19979C9.97672 3.43446 9.59872 2.79513 8.97338 2.28179C8.34805 1.76846 7.63405 1.51179 6.83138 1.51179H3.10738C2.52872 1.54913 2.01072 1.73579 1.55338 2.07179C1.09605 2.40779 0.741382 2.83713 0.489382 3.35979C0.237382 3.88246 0.130049 4.43313 0.167382 5.01179C0.354049 6.87846 0.764715 8.70313 1.39938 10.4858C2.03405 12.2685 2.87405 13.9438 3.91938 15.5118C5.78605 18.4611 8.19405 20.8691 11.1434 22.7358C12.73 23.7251 14.41 24.5371 16.1834 25.1718C17.9567 25.8065 19.7767 26.2451 21.6434 26.4878H22.0074C22.3994 26.4878 22.7914 26.4038 23.1834 26.2358C23.5754 26.0678 23.9207 25.8391 24.2194 25.5498C24.518 25.2605 24.7467 24.9198 24.9054 24.5278C25.064 24.1358 25.1434 23.7345 25.1434 23.3238V19.8238C25.1434 18.9651 24.882 18.2185 24.3594 17.5838C23.8367 16.9491 23.1647 16.5665 22.3434 16.4358ZM23.2674 19.7118V23.2118C23.2674 23.6038 23.118 23.9585 22.8194 24.2758C22.4834 24.5745 22.1287 24.7238 21.7554 24.7238H21.6434C19.926 24.5558 18.2554 24.1825 16.6314 23.6038C14.9514 23.0065 13.3927 22.2131 11.9554 21.2238C10.63 20.3651 9.39338 19.3618 8.24538 18.2138C7.09738 17.0658 6.08472 15.8198 5.20738 14.4758C4.27405 13.0198 3.51338 11.4705 2.92538 9.82779C2.33738 8.18513 1.93138 6.50513 1.70738 4.78779C1.76338 4.35846 1.93138 3.99913 2.21138 3.70979C2.49138 3.42046 2.82738 3.27579 3.21938 3.27579H6.83138C7.18605 3.27579 7.50805 3.40179 7.79738 3.65379C8.08672 3.90579 8.23138 4.19979 8.23138 4.53579C8.26872 5.02113 8.36205 5.56246 8.51138 6.15979C8.60472 6.53313 8.75405 7.07446 8.95938 7.78379L9.04338 8.03579C9.15538 8.33446 9.18338 8.61913 9.12738 8.88979C9.07138 9.16046 8.93138 9.38913 8.70738 9.57579L7.41938 10.9758C7.25138 11.0878 7.15338 11.2418 7.12538 11.4378C7.09738 11.6338 7.11138 11.8251 7.16738 12.0118C8.04472 13.5238 9.11338 14.9098 10.3734 16.1698C11.6334 17.4298 13.0194 18.4985 14.5314 19.3758C14.6994 19.4878 14.886 19.5251 15.0914 19.4878C15.2967 19.4505 15.4554 19.3665 15.5674 19.2358L17.1074 17.7238C17.294 17.5371 17.5367 17.4065 17.8354 17.3318C18.134 17.2571 18.3954 17.2758 18.6194 17.3878C19.702 17.8171 20.8687 18.0878 22.1194 18.1998C22.474 18.2558 22.7727 18.4378 23.0154 18.7458C23.258 19.0538 23.342 19.3758 23.2674 19.7118ZM14.8674 3.13579C16.3794 3.28513 17.7514 3.75179 18.9834 4.53579C20.2154 5.31979 21.2234 6.32779 22.0074 7.55979C22.7914 8.79179 23.258 10.1638 23.4074 11.6758C23.4074 11.8998 23.496 12.0911 23.6734 12.2498C23.8507 12.4085 24.0327 12.4878 24.2194 12.4878H24.3314C24.5554 12.4878 24.7467 12.3898 24.9054 12.1938C25.064 11.9978 25.1434 11.7785 25.1434 11.5358C24.9567 9.78113 24.3874 8.16646 23.4354 6.69179C22.5207 5.25446 21.3307 4.07846 19.8654 3.16379C18.4 2.24913 16.7807 1.69846 15.0074 1.51179C14.7647 1.51179 14.5454 1.59113 14.3494 1.74979C14.1534 1.90846 14.0554 2.09046 14.0554 2.29579C14.0554 2.50113 14.1347 2.69246 14.2934 2.86979C14.452 3.04713 14.6434 3.13579 14.8674 3.13579ZM14.0554 6.88779C13.9994 7.11179 14.046 7.32646 14.1954 7.53179C14.3447 7.73713 14.5314 7.86779 14.7554 7.92379C15.726 8.11046 16.5707 8.56779 17.2894 9.29579C18.008 10.0238 18.4887 10.8918 18.7314 11.8998C18.7874 12.1238 18.89 12.2965 19.0394 12.4178C19.1887 12.5391 19.3567 12.5998 19.5434 12.5998H19.6554C19.898 12.5438 20.0894 12.4131 20.2294 12.2078C20.3694 12.0025 20.4114 11.7785 20.3554 11.5358C20.1314 10.2105 19.5387 9.06246 18.5774 8.09179C17.616 7.12113 16.4634 6.48646 15.1194 6.18779C14.8767 6.13179 14.6527 6.16446 14.4474 6.28579C14.242 6.40713 14.1114 6.60779 14.0554 6.88779Z" fill="#111827"/>
</svg>
