<svg width="13" height="6" viewBox="0 0 13 6" fill="none" xmlns="http://www.w3.org/2000/svg">
<path d="M12.544 2.57601C12.544 2.54801 12.5323 2.52235 12.509 2.49901C12.4857 2.47568 12.46 2.46401 12.432 2.46401L10.094 0.126013C10.0007 0.0420136 9.89333 1.33514e-05 9.772 1.33514e-05C9.65067 1.33514e-05 9.54333 0.0420136 9.45 0.126013C9.35667 0.210013 9.31233 0.317347 9.317 0.448013C9.32167 0.57868 9.366 0.686014 9.45 0.770013L11.032 2.35201H0.462C0.340667 2.35201 0.233333 2.39401 0.14 2.47801C0.0466667 2.56201 0 2.67635 0 2.82101C0 2.96568 0.042 3.07768 0.126 3.15701C0.21 3.23635 0.322 3.27601 0.462 3.27601H11.088L9.506 4.85801C9.422 4.94201 9.38 5.04701 9.38 5.17301C9.38 5.29901 9.422 5.40868 9.506 5.50201C9.534 5.53001 9.576 5.55568 9.632 5.57901C9.688 5.60235 9.744 5.61401 9.8 5.61401C9.856 5.61401 9.912 5.60235 9.968 5.57901C10.024 5.55568 10.066 5.53001 10.094 5.50201L12.432 3.16401C12.4507 3.14535 12.4693 3.12201 12.488 3.09401C12.5067 3.06601 12.5253 3.05201 12.544 3.05201C12.572 2.93068 12.586 2.83735 12.586 2.77201C12.586 2.70668 12.572 2.64135 12.544 2.57601Z" fill="#212529"/>
</svg>
