<svg width="20" height="20" viewBox="0 0 20 20" fill="none" xmlns="http://www.w3.org/2000/svg">
<g clip-path="url(#clip0_6314_4249)">
<g clip-path="url(#clip1_6314_4249)">
<path d="M18.7355 19.318L17.1633 9.87781C16.9364 8.51812 15.7709 7.53125 14.3919 7.53125C13.3307 7.53125 12.4674 6.66793 12.4674 5.60676V2.46875C12.4674 1.1075 11.36 0 9.99868 0C8.63739 0 7.52993 1.1075 7.52993 2.46875V5.60676C7.52993 6.66793 6.66661 7.53125 5.60544 7.53125C4.22649 7.53125 3.06094 8.51813 2.83391 9.87856L1.26184 19.318C1.2336 19.4879 1.28153 19.6615 1.39286 19.7929C1.50423 19.9243 1.66766 20 1.83985 20H18.1575C18.3297 20 18.4932 19.9243 18.6045 19.7929C18.7158 19.6615 18.7638 19.4879 18.7355 19.318ZM3.98993 10.0707C4.12219 9.27828 4.80161 8.70312 5.60544 8.70312C7.31278 8.70312 8.7018 7.3141 8.7018 5.60676V2.46875C8.7018 1.75363 9.2836 1.17188 9.99868 1.17188C10.7138 1.17188 11.2956 1.75367 11.2956 2.46875V5.60676C11.2956 7.3141 12.6846 8.70312 14.3919 8.70312C15.1957 8.70312 15.8752 9.27828 16.0073 10.07C16.0537 10.3503 16.1026 10.6451 16.1517 10.9414C15.394 10.36 14.4619 10.0417 13.5039 10.0417H6.49352C5.53548 10.0417 4.60337 10.36 3.84567 10.9414C3.89473 10.6454 3.94356 10.3508 3.98993 10.0707ZM3.35926 13.87C3.61466 12.3307 4.93278 11.2136 6.49348 11.2136H13.5038C15.0645 11.2136 16.3827 12.3307 16.6383 13.8714C16.7929 14.7898 16.9475 15.7145 17.0483 16.3177H2.94899C3.04977 15.7143 3.20454 14.7893 3.35926 13.87ZM2.53122 18.8281L2.75372 17.4896H17.2436L17.4661 18.8281H2.53122Z" fill="black"/>
</g>
</g>
<defs>
<clipPath id="clip0_6314_4249">
<rect width="20" height="20" fill="white"/>
</clipPath>
<clipPath id="clip1_6314_4249">
<rect width="20" height="20" fill="white"/>
</clipPath>
</defs>
</svg>
