<svg width="26" height="26" viewBox="0 0 26 26" fill="none" xmlns="http://www.w3.org/2000/svg">
<g clip-path="url(#clip0_6314_4098)">
<path d="M21.1657 22.204L17.0577 18.096C17.7684 17.264 18.3231 16.3237 18.7217 15.275C19.1204 14.2263 19.3197 13.1387 19.3197 12.012C19.3197 10.296 18.8864 8.70134 18.0197 7.228C17.1877 5.78934 16.0524 4.64534 14.6137 3.796C13.1404 2.92934 11.5371 2.496 9.80372 2.496C8.07039 2.496 6.46705 2.92934 4.99372 3.796C3.55505 4.628 2.41105 5.75467 1.56172 7.176C0.695052 8.66667 0.261719 10.2743 0.261719 11.999C0.261719 13.7237 0.695052 15.3227 1.56172 16.796C2.39372 18.2347 3.52039 19.3787 4.94172 20.228C6.43239 21.112 8.04439 21.554 9.77772 21.554C10.9044 21.554 11.9921 21.3547 13.0407 20.956C14.0894 20.5573 15.0297 20.0027 15.8617 19.292L19.9697 23.4C20.0217 23.452 20.0997 23.4997 20.2037 23.543C20.3077 23.5863 20.4117 23.608 20.5157 23.608C20.6197 23.608 20.7237 23.5863 20.8277 23.543C20.9317 23.4997 21.0097 23.452 21.0617 23.4C21.2697 23.192 21.3781 22.984 21.3867 22.776C21.3954 22.568 21.3217 22.3773 21.1657 22.204ZM1.97772 11.908C1.97772 10.4867 2.33305 9.16934 3.04372 7.956C3.73705 6.79467 4.66439 5.86734 5.82572 5.174C7.03905 4.46334 8.35639 4.108 9.77772 4.108C11.1991 4.108 12.5164 4.472 13.7297 5.2C14.9084 5.89334 15.8444 6.838 16.5377 8.034C17.2311 9.23 17.5777 10.53 17.5777 11.934C17.5777 13.338 17.2137 14.6467 16.4857 15.86C15.7924 17.0387 14.8477 17.9747 13.6517 18.668C12.4557 19.3613 11.1644 19.708 9.77772 19.708C8.37372 19.7427 7.05639 19.4047 5.82572 18.694C4.66439 18.018 3.73272 17.0733 3.03072 15.86C2.32872 14.6467 1.97772 13.3293 1.97772 11.908Z" fill="black"/>
</g>
<defs>
<clipPath id="clip0_6314_4098">
<rect width="26" height="26" fill="white" transform="matrix(1 0 0 -1 0 26)"/>
</clipPath>
</defs>
</svg>
