<svg width="28" height="28" viewBox="0 0 28 28" fill="none" xmlns="http://www.w3.org/2000/svg">
<path d="M22.0842 3.83588H3.43616C2.85749 3.83588 2.31616 3.97588 1.81216 4.25588C1.30816 4.53588 0.906823 4.91854 0.608156 5.40388C0.30949 5.88921 0.160156 6.42121 0.160156 6.99988V20.9999C0.160156 21.5785 0.304823 22.1199 0.594156 22.6239C0.88349 23.1279 1.27549 23.5292 1.77016 23.8279C2.26482 24.1265 2.82016 24.2759 3.43616 24.2759H22.0842C22.6628 24.2759 23.2042 24.1312 23.7082 23.8419C24.2122 23.5525 24.6135 23.1605 24.9122 22.6659C25.2108 22.1712 25.3602 21.6159 25.3602 20.9999V6.99988C25.3602 6.42121 25.2108 5.88921 24.9122 5.40388C24.6135 4.91854 24.2122 4.53588 23.7082 4.25588C23.2042 3.97588 22.6628 3.83588 22.0842 3.83588ZM3.43616 5.59988H22.0842C22.4948 5.59988 22.8308 5.73988 23.0922 6.01988C23.3535 6.29988 23.4842 6.62654 23.4842 6.99988V7.69988L13.4602 14.1119C13.2175 14.2239 12.9655 14.2799 12.7042 14.2799C12.4428 14.2799 12.1908 14.2239 11.9482 14.1119L2.03616 7.69988V6.99988C2.03616 6.58921 2.16682 6.25321 2.42816 5.99188C2.68949 5.73055 3.02549 5.59988 3.43616 5.59988ZM22.0842 22.5119H3.43616C3.04416 22.5119 2.71282 22.3672 2.44216 22.0779C2.17149 21.7885 2.03616 21.4665 2.03616 21.1119V9.79988L11.1362 15.6239C11.5282 15.9412 12.0695 16.0999 12.7602 16.0999C13.4508 16.0999 13.9922 15.9412 14.3842 15.6239L23.4842 9.79988V20.9999C23.4842 21.4105 23.3535 21.7652 23.0922 22.0639C22.8308 22.3625 22.4948 22.5119 22.0842 22.5119Z" fill="#111827"/>
</svg>
