<svg width="20" height="20" viewBox="0 0 20 20" fill="none" xmlns="http://www.w3.org/2000/svg">
<g clip-path="url(#clip0_6314_4234)">
<g clip-path="url(#clip1_6314_4234)">
<g clip-path="url(#clip2_6314_4234)">
<path d="M19.46 4.86L15.14 0.54C14.8 0.2 14.34 0 13.84 0C13.36 0 12.88 0.2 12.54 0.54L9.42 3.66L6.38 4.66C5.92 4.8 5.6 5.18 5.54 5.66C5.48 6.14 5.68 6.6 6.08 6.86C6.1 6.88 6.14 6.9 6.16 6.92L0.54 12.54C-0.18 13.26 -0.18 14.42 0.54 15.14L4.86 19.46C5.2 19.8 5.66 20 6.16 20C6.66 20 7.12 19.8 7.46 19.46L12.6 14.32C13.06 14.58 13.48 14.82 13.84 14.98C14.02 15.06 14.2 15.12 14.38 15.12C14.56 15.12 14.76 15.06 14.92 14.98C15.28 14.82 15.52 14.5 15.6 14.12L16.36 10.56L19.46 7.46C20.18 6.74 20.18 5.58 19.46 4.86ZM6.6 18.6C6.48 18.72 6.32 18.8 6.16 18.8C5.98 18.8 5.82 18.72 5.72 18.6L1.4 14.28C1.14 14.04 1.14 13.64 1.4 13.4L7.14 7.66C8 8.36 8.92 9.32 9.22 10.38C9.6 11.74 10.58 12.8 11.6 13.62L6.6 18.6ZM14.42 13.88C14.42 13.88 14.42 13.9 14.4 13.9C14.38 13.9 14.38 13.9 14.36 13.9C13.36 13.42 10.96 12.06 10.38 10.04C9.86 8.24 8.12 6.78 6.74 5.86C6.74 5.86 6.72 5.84 6.74 5.82C6.74 5.8 6.74 5.8 6.76 5.8L9.58 4.88L15.16 10.44L14.42 13.88ZM12.14 5.72L13.84 4.02L15.98 6.16L14.28 7.86L12.14 5.72ZM18.6 6.6L15.82 9.4L15.14 8.72L17.26 6.58C17.38 6.48 17.44 6.32 17.44 6.16C17.44 6 17.38 5.84 17.26 5.72L14.28 2.74C14.16 2.62 14 2.56 13.84 2.56C13.68 2.56 13.52 2.62 13.42 2.74L11.28 4.86L10.6 4.18L13.4 1.4C13.52 1.28 13.68 1.2 13.84 1.2C14.02 1.2 14.18 1.28 14.3 1.4L18.6 5.7C18.86 5.96 18.86 6.36 18.6 6.6Z" fill="black"/>
</g>
</g>
</g>
<defs>
<clipPath id="clip0_6314_4234">
<rect width="20" height="20" fill="white"/>
</clipPath>
<clipPath id="clip1_6314_4234">
<rect width="20" height="20" fill="white"/>
</clipPath>
<clipPath id="clip2_6314_4234">
<rect width="20" height="20" fill="white"/>
</clipPath>
</defs>
</svg>
