<svg width="20" height="20" viewBox="0 0 20 20" fill="none" xmlns="http://www.w3.org/2000/svg">
<g clip-path="url(#clip0_6314_4255)">
<g clip-path="url(#clip1_6314_4255)">
<g clip-path="url(#clip2_6314_4255)">
<path d="M18.9591 3.26C18.9591 2.54 18.4591 1.54 16.0991 0.8C14.4591 0.28 12.2991 0 9.99906 0C7.69906 0 5.53906 0.28 3.89906 0.8C1.53906 1.54 1.03906 2.54 1.03906 3.26V16.7C1.03906 18.86 5.53906 20 9.99906 20C14.4591 20 18.9591 18.86 18.9591 16.7V3.26ZM17.7791 16.7C17.7791 17.06 17.1591 17.6 15.7391 18.06C15.4791 18.14 15.1991 18.22 14.8991 18.3V17.46C14.8991 17.12 14.6391 16.86 14.2991 16.86C13.9591 16.86 13.7191 17.12 13.7191 17.46V18.54C12.5791 18.72 11.3191 18.82 9.99906 18.82C7.81906 18.82 5.77906 18.56 4.25906 18.06C2.85906 17.6 2.21906 17.06 2.21906 16.7V4.98C3.83906 6 6.93906 6.54 9.99906 6.54C11.2791 6.54 12.5391 6.46 13.7191 6.28V7.14C13.7191 7.48 13.9791 7.74 14.2991 7.74C14.6191 7.74 14.8991 7.48 14.8991 7.14V6.06C16.0591 5.8 17.0591 5.44 17.7791 4.98V16.7ZM15.7391 4.6C14.2191 5.1 12.1791 5.36 9.99906 5.36C7.81906 5.36 5.77906 5.1 4.25906 4.6C2.85906 4.14 2.21906 3.6 2.21906 3.26C2.21906 2.92 2.83906 2.36 4.25906 1.92C5.77906 1.44 7.81906 1.18 9.99906 1.18C12.1791 1.18 14.2191 1.44 15.7391 1.92C17.1591 2.36 17.7791 2.92 17.7791 3.26C17.7791 3.6 17.1591 4.14 15.7391 4.6ZM12.4591 2.08C11.7991 1.92 10.9191 1.82 9.99906 1.82C9.07906 1.82 8.19906 1.92 7.53906 2.08C6.61906 2.32 6.15906 2.72 6.15906 3.26C6.15906 3.8 6.61906 4.2 7.53906 4.46C8.19906 4.62 9.07906 4.72 9.99906 4.72C10.9191 4.72 11.7991 4.62 12.4591 4.46C13.3791 4.2 13.8391 3.8 13.8391 3.26C13.8391 2.72 13.3791 2.32 12.4591 2.08ZM9.99906 3.54C8.93906 3.54 8.13906 3.4 7.67906 3.26C8.13906 3.14 8.93906 3 9.99906 3C11.0791 3 11.8591 3.14 12.3191 3.26C11.8591 3.4 11.0791 3.54 9.99906 3.54ZM14.2991 8.94C13.9791 8.94 13.7191 9.2 13.7191 9.54V11.1C13.7191 11.44 13.9791 11.7 14.2991 11.7C14.6191 11.7 14.8991 11.44 14.8991 11.1V9.54C14.8991 9.2 14.6391 8.94 14.2991 8.94ZM14.2991 12.9C13.9791 12.9 13.7191 13.16 13.7191 13.5V15.06C13.7191 15.4 13.9791 15.66 14.2991 15.66C14.6191 15.66 14.8991 15.4 14.8991 15.06V13.5C14.8991 13.16 14.6391 12.9 14.2991 12.9Z" fill="black"/>
</g>
</g>
</g>
<defs>
<clipPath id="clip0_6314_4255">
<rect width="20" height="20" fill="white"/>
</clipPath>
<clipPath id="clip1_6314_4255">
<rect width="20" height="20" fill="white"/>
</clipPath>
<clipPath id="clip2_6314_4255">
<rect width="20" height="20" fill="white"/>
</clipPath>
</defs>
</svg>
