<svg width="26" height="26" viewBox="0 0 26 26" fill="none" xmlns="http://www.w3.org/2000/svg">
<g clip-path="url(#clip0_6314_4106)">
<path d="M12.6142 11.102C11.7822 11.6393 10.8808 11.908 9.91016 11.908C9.26882 11.908 8.64916 11.7823 8.05116 11.531C7.45316 11.2797 6.92449 10.9287 6.46516 10.478C6.00582 10.0273 5.65482 9.50301 5.41216 8.90501C5.16949 8.30701 5.04816 7.68735 5.04816 7.04601C5.04816 6.04068 5.32116 5.13068 5.86716 4.31601C6.41316 3.50134 7.13249 2.90768 8.02516 2.53501C8.91782 2.16235 9.86682 2.07134 10.8722 2.26201C11.8082 2.43534 12.6315 2.87301 13.3422 3.57501C14.0528 4.27701 14.4992 5.10901 14.6812 6.07101C14.8632 7.03301 14.7722 7.97334 14.4082 8.89201C14.0442 9.81068 13.4462 10.5473 12.6142 11.102ZM11.4182 4.78401C10.9675 4.48935 10.4648 4.34201 9.91016 4.34201C9.18216 4.34201 8.54082 4.60201 7.98616 5.12201C7.46616 5.67668 7.20616 6.31801 7.20616 7.04601C7.20616 7.60068 7.35782 8.10334 7.66116 8.55401C7.96449 9.00468 8.36749 9.33401 8.87016 9.54201C9.37282 9.75001 9.89282 9.80201 10.4302 9.69801C10.9675 9.59401 11.4312 9.34701 11.8212 8.95701C12.2112 8.56701 12.4582 8.10334 12.5622 7.56601C12.6662 7.02868 12.6142 6.50868 12.4062 6.00601C12.1982 5.50335 11.8688 5.09601 11.4182 4.78401ZM3.02016 15.86C3.92149 14.9413 4.97016 14.235 6.16616 13.741C7.36216 13.247 8.61016 13 9.91016 13C11.2102 13 12.4582 13.247 13.6542 13.741C14.8502 14.235 15.9032 14.937 16.8132 15.847C17.7232 16.757 18.4252 17.81 18.9192 19.006C19.4132 20.202 19.6602 21.45 19.6602 22.75C19.6602 23.062 19.5475 23.322 19.3222 23.53C19.0968 23.738 18.8455 23.842 18.5682 23.842H13.1602C12.8655 23.842 12.6098 23.7337 12.3932 23.517C12.1765 23.3003 12.0682 23.0447 12.0682 22.75C12.0682 22.4553 12.1765 22.1997 12.3932 21.983C12.6098 21.7663 12.8655 21.658 13.1602 21.658H17.4242C17.2855 20.7567 16.9995 19.903 16.5662 19.097C16.1328 18.291 15.5695 17.5933 14.8762 17.004C14.1828 16.4147 13.4115 15.9597 12.5622 15.639C11.7128 15.3183 10.8288 15.158 9.91016 15.158C8.99149 15.158 8.10749 15.3183 7.25816 15.639C6.40882 15.9597 5.63749 16.4147 4.94416 17.004C4.25082 17.5933 3.68749 18.291 3.25416 19.097C2.82082 19.903 2.53482 20.7567 2.39616 21.658H6.66016C6.93749 21.658 7.19749 21.762 7.44016 21.97C7.64816 22.2127 7.75216 22.4727 7.75216 22.75C7.75216 23.0273 7.64816 23.2873 7.44016 23.53C7.19749 23.738 6.93749 23.842 6.66016 23.842H1.25216C0.974823 23.842 0.72349 23.738 0.498156 23.53C0.272823 23.322 0.160156 23.062 0.160156 22.75C0.160156 21.45 0.407156 20.2063 0.901156 19.019C1.39516 17.8317 2.10149 16.7787 3.02016 15.86Z" fill="#030712"/>
</g>
<defs>
<clipPath id="clip0_6314_4106">
<rect width="26" height="26" fill="white" transform="matrix(1 0 0 -1 0 26)"/>
</clipPath>
</defs>
</svg>
