<svg width="56" height="57" viewBox="0 0 56 57" fill="none" xmlns="http://www.w3.org/2000/svg">
<path d="M34.3023 38.875C41.3023 38.875 47.0773 33.1 47.0773 26.1C47.0773 19.1 41.3023 13.325 34.3023 13.325C27.3023 13.325 21.5273 19.1 21.5273 26.1C21.5273 33.1 27.1273 38.875 34.3023 38.875Z" fill="#FFB709"/>
<path d="M25.7247 21.1999C26.5997 20.1499 26.9497 18.9249 26.9497 17.5249C26.9497 14.7249 25.0247 12.2749 22.3997 11.7499C22.5747 11.0499 22.7497 10.3499 22.7497 9.64995C22.7497 5.44995 19.2497 1.94995 14.8747 1.94995C10.6747 1.94995 7.17471 5.44995 7.17471 9.64995C7.17471 10.3499 7.34971 10.8749 7.34971 11.5749C4.89971 12.2749 2.97471 14.7249 2.97471 17.5249C2.97471 18.9249 3.49971 20.1499 4.19971 21.1999C2.79971 22.5999 1.39971 24.5249 1.74971 26.7999C2.09971 28.8999 11.0247 50.2499 11.0247 50.2499H18.7247C18.7247 50.2499 27.6497 28.8999 27.9997 26.7999C28.5247 24.5249 27.1247 22.5999 25.7247 21.1999Z" fill="#634C9F"/>
<path d="M14.875 10.7V49.7249" stroke="#1D1D1B" stroke-width="1.5" stroke-miterlimit="10" stroke-linecap="round" stroke-linejoin="round"/>
<path d="M8.22656 27.675L14.8766 35.2001" stroke="#1D1D1B" stroke-width="1.5" stroke-miterlimit="10" stroke-linecap="round" stroke-linejoin="round"/>
<path d="M21.7 27.675L14.875 35.2001" stroke="#1D1D1B" stroke-width="1.5" stroke-miterlimit="10" stroke-linecap="round" stroke-linejoin="round"/>
<path d="M8.22656 16.65L15.0516 24.35" stroke="#1D1D1B" stroke-width="1.5" stroke-miterlimit="10" stroke-linecap="round" stroke-linejoin="round"/>
<path d="M21.7 16.65L14.875 24.35" stroke="#1D1D1B" stroke-width="1.5" stroke-miterlimit="10" stroke-linecap="round" stroke-linejoin="round"/>
<path d="M42.3477 38.175C42.6977 39.4 42.8727 40.625 43.0477 41.675H54.2477L49.6977 27.85L40.5977 34.675C41.2977 35.725 41.8227 36.95 42.3477 38.175Z" fill="#634C9F"/>
<path d="M2.45039 51.3C1.75039 49.375 2.45039 47.275 3.85039 46.4L29.9254 31C34.4754 28.725 40.2504 32.05 42.3504 38.175C44.2754 44.3 41.6504 50.425 36.5754 51.3L6.4754 54.45C4.9004 54.625 3.15039 53.225 2.45039 51.3Z" stroke="#1D1D1B" stroke-width="1.5" stroke-miterlimit="10" stroke-linecap="round" stroke-linejoin="round"/>
<path d="M29.5742 31.35C29.7492 31.7 33.4242 43.775 33.4242 43.775" stroke="#1D1D1B" stroke-width="1.5" stroke-miterlimit="10" stroke-linecap="round" stroke-linejoin="round"/>
<path d="M25.375 45.175C25.55 45.525 27.65 52.175 27.65 52.175" stroke="#1D1D1B" stroke-width="1.5" stroke-miterlimit="10" stroke-linecap="round" stroke-linejoin="round"/>
<path d="M17.8477 38.525C18.0227 38.875 20.1227 45.525 20.1227 45.525" stroke="#1D1D1B" stroke-width="1.5" stroke-miterlimit="10" stroke-linecap="round" stroke-linejoin="round"/>
<path d="M7.875 48.85L9.45 53.925" stroke="#1D1D1B" stroke-width="1.5" stroke-miterlimit="10" stroke-linecap="round" stroke-linejoin="round"/>
<path d="M38.8492 8.25L36.5742 16.825" stroke="#1D1D1B" stroke-width="1.5" stroke-miterlimit="10" stroke-linecap="round" stroke-linejoin="round"/>
<path d="M39.9008 16.65C39.3758 17 38.6758 17 37.9758 17C36.5758 17 35.1758 16.3 34.3008 15.25" stroke="#1D1D1B" stroke-width="1.5" stroke-miterlimit="10" stroke-linecap="round" stroke-linejoin="round"/>
</svg>
