<svg width="36" height="12" viewBox="0 0 36 12" fill="none" xmlns="http://www.w3.org/2000/svg">
<path d="M31.3 4.20001L31.9 7.4H29.5L30.7 4.3L30.9 3.7L31 3.2C31 3.3 31.3 4.20001 31.3 4.20001ZM8.6 11.3L13 0.400005H10L7.3 7.9L7 6.3L6 1.3C5.9 0.700005 5.4 0.300005 4.6 0.300005H0.1L0 0.500005C1.2 0.700005 2.1 1.1 3 1.7L5.6 11.4H8.7L8.6 11.3ZM15.3 11.3L17.1 0.400005H14.3L12.5 11.5H15.3V11.3ZM25.4 7.80001C25.4 6.60001 24.6 5.60001 23 4.70001C21.8 4.20001 21.2 3.80001 21.2 3.40001C21.2 2.8 21.8 2.50001 23 2.50001C23.7 2.50001 24.4 2.50001 25 3.00001H25.4L25.7 0.500005C24.8 0.0999999 24 0 23.1 0C22.2 0 21.4 0.2 20.7 0.500005C20 0.800005 19.4 1.2 18.9 1.8C18.5 2.4 18.3 3 18.3 3.7C18.3 4.9 19.1 5.9 20.9 6.8C21.8 7.3 22.3 7.69999 22.3 8.09999C22.3 8.79999 21.7 9.3 20.6 9.3C19.7 9.3 18.7 9.1 17.9 8.7L17.5 8.5L17 10.9C18 11.3 19.1 11.6 20.2 11.6C21.5 11.7 22.7 11.3 23.7 10.7C24.9 9.9 25.4 8.90001 25.4 7.80001ZM35.4 11.3L33.1 0.400005H30.9C30.2 0.400005 29.7 0.600005 29.5 1.3L25.2 11.5H28.2L28.7 9.9H32.5L32.9 11.6H35.5V11.3H35.4Z" fill="url(#paint0_linear_6481_3526)"/>
<defs>
<linearGradient id="paint0_linear_6481_3526" x1="1.2819" y1="5.80841" x2="34.9449" y2="5.80841" gradientUnits="userSpaceOnUse">
<stop stop-color="#2C3572"/>
<stop offset="1" stop-color="#3C62AB"/>
</linearGradient>
</defs>
</svg>
