<svg width="20" height="20" viewBox="0 0 20 20" fill="none" xmlns="http://www.w3.org/2000/svg">
<g clip-path="url(#clip0_6314_4241)">
<g clip-path="url(#clip1_6314_4241)">
<g clip-path="url(#clip2_6314_4241)">
<path d="M15.3394 12.26H12.6994C11.6394 12.26 10.6794 12.7 9.97937 13.38V11.14H11.6794C13.5994 11.14 15.1594 9.58 15.1594 7.66C15.1594 7.34 14.8994 7.08 14.5594 7.08H12.2794C11.3794 7.08 10.5794 7.42 9.97937 7.96V6.54L10.5594 5.96C11.2194 5.28 11.5994 4.38 11.5994 3.44C11.5994 2.48 11.2194 1.6 10.5594 0.92L9.79938 0.18C9.57938 -0.06 9.19937 -0.06 8.97937 0.18L8.21938 0.92C7.53938 1.6 7.17937 2.48 7.17937 3.44C7.17937 4.38 7.53938 5.28 8.21938 5.96L8.79937 6.54V7.96C8.17937 7.42 7.37937 7.08 6.49937 7.08H4.19937C3.87937 7.08 3.61937 7.34 3.61937 7.66C3.61937 9.58 5.17937 11.14 7.07937 11.14H8.79937V13.38C8.09937 12.7 7.13937 12.26 6.07937 12.26H3.43937C3.11937 12.26 2.85938 12.52 2.85938 12.86C2.85938 15 4.59938 16.74 6.73938 16.74H8.79937V18.18C8.79937 18.5 9.05938 18.76 9.37937 18.76C9.69938 18.76 9.97937 18.5 9.97937 18.18V16.74H12.0194C14.1794 16.74 15.9194 15 15.9194 12.86C15.9194 12.52 15.6594 12.26 15.3394 12.26ZM12.2794 8.26H13.8994C13.6394 9.24 12.7394 9.96 11.6794 9.96H10.0394C10.2994 8.98 11.1994 8.26 12.2794 8.26ZM7.07937 9.96C6.01937 9.96 5.11937 9.24 4.85937 8.26H6.49937C7.55937 8.26 8.45937 8.98 8.71937 9.96H7.07937ZM6.73938 15.58C5.43938 15.58 4.35937 14.66 4.07937 13.44H6.07937C7.37937 13.44 8.45937 14.36 8.73938 15.58H6.73938ZM9.37937 5.38C9.19938 5.38 8.33937 4.58 8.33937 3.44C8.33937 2.34 8.99938 1.8 9.37937 1.42C9.75938 1.78 10.4194 2.34 10.4194 3.44C10.4194 4.56 9.57938 5.38 9.37937 5.38ZM12.0194 15.58H10.0394C10.2994 14.36 11.3994 13.44 12.6994 13.44H14.6794C14.4194 14.66 13.3194 15.58 12.0194 15.58Z" fill="black"/>
</g>
</g>
</g>
<defs>
<clipPath id="clip0_6314_4241">
<rect width="20" height="20" fill="white"/>
</clipPath>
<clipPath id="clip1_6314_4241">
<rect width="20" height="20" fill="white"/>
</clipPath>
<clipPath id="clip2_6314_4241">
<rect width="20" height="20" fill="white"/>
</clipPath>
</defs>
</svg>
